
<svg xmlns="http://www.w3.org/2000/svg" viewBox="0 0 100 100">
  <!-- Brown background -->
  <rect width="100" height="100" fill="#5C4033"/>
  
  <!-- White "CC" text -->
  <g fill="#FFFFFF">
    <!-- First C -->
    <path d="M32,35c-8,0-14.5,6.5-14.5,14.5S24,64,32,64c6,0,11-4,13-9h-6c-1.5,3-4,5-7,5c-5,0-9-4-9-9s4-9,9-9c3,0,5.5,2,7,5h6C43,39,38,35,32,35z"/>
    
    <!-- Second C -->
    <path d="M68,35c-8,0-14.5,6.5-14.5,14.5S60,64,68,64c6,0,11-4,13-9h-6c-1.5,3-4,5-7,5c-5,0-9-4-9-9s4-9,9-9c3,0,5.5,2,7,5h6C79,39,74,35,68,35z"/>
  </g>
</svg>