<svg xmlns="http://www.w3.org/2000/svg" width="22" height="20" viewBox="0 0 22 20" fill="none">
<g clip-path="url(#clip0_335_1680)">
<path d="M20.4611 8.6908C21.1886 8.6908 21.8252 9.27018 21.8252 9.93233V16.14C21.8252 16.8022 21.1886 17.3816 20.4611 17.3816H17.733C17.0055 17.3816 16.3689 16.8022 16.3689 16.14V9.93233C16.3689 9.27018 17.0055 8.6908 17.733 8.6908H20.4611Z" fill="#AE0F0A"/>
<path d="M12.2765 2.48309C13.004 2.48309 13.6406 3.06248 13.6406 3.72463V16.14C13.6406 16.8022 13.004 17.3816 12.2765 17.3816H9.54839C8.82089 17.3816 8.18433 16.8022 8.18433 16.14V3.72463C8.18433 3.06248 8.82089 2.48309 9.54839 2.48309H12.2765Z" fill="#4F81C1"/>
<path d="M4.0922 6.2077C4.8197 6.2077 5.45626 6.78709 5.45626 7.44924V16.14C5.45626 16.8022 4.8197 17.3815 4.0922 17.3815H1.36407C0.636564 17.3815 0 16.8022 0 16.14V7.44924C0 6.78709 0.636564 6.2077 1.36407 6.2077H4.0922Z" fill="#FFD400"/>
</g>
<defs>
<clipPath id="clip0_335_1680">
<rect width="21.8251" height="19.8646" fill="white"/>
</clipPath>
</defs>
</svg>